<svg id="Layer_1" data-name="Layer 1" xmlns="http://www.w3.org/2000/svg" viewBox="0 0 1859.09 1859.09"><defs><style>.cls-1{fill:#8b0000;}.cls-1,.cls-2{stroke:#8b0000;stroke-miterlimit:10;}.cls-2{fill:none;stroke-width:45px;}</style></defs><path class="cls-1" d="M1674.79-1986.74c4.09,18.22,17.81,24.92,32.57,16.88,29-15.8,33.66-44.71,10.18-67.82a87.45,87.45,0,0,0-24.14-16.54c-18.19-8.45-35.86-6.58-52,6.19-23.5,18.59-37.7,41.36-32.57,72.61,2.74,16.71,11.83,30.2,23.5,42.06,4.91,5,10.13,9.7,16,15.27-6.17,5-11.94,9.39-17.43,14.13C1576.64-1857,1606-1791.25,1644-1769.34c33.29,19.17,77.81-1.06,86-38.59,5.85-27-15.57-52-42.94-50.24-11,.73-20.38,7.73-24.73,19.25,5.3,1.35,10.51,2.59,15.68,4,14,3.87,20,13.06,16.45,25-3.88,12.93-14.94,18.44-28.31,14.09-24.51-8-34.79-27.18-27.93-52.09a68,68,0,0,1,21.43-33.83c17.75-15.46,41.39-15.27,62.82.58,42.75,31.6,50.66,94.47,5.52,130.22-3,2.41-5.78,5.21-9.69,8.78,5.78,3.92,10.63,7,15.26,10.39,13.2,9.63,24.55,20.66,27.28,37.85,3.17,20-13.46,45.72-33,51-19.86,5.37-40.47-9.46-38.76-28.67.54-6.09,4.49-11.87,6.89-17.79l3.13.34c1.7,2.4,3.36,4.82,5.11,7.19,4,5.36,9.09,8.6,15.9,6.72,7.12-2,10.19-7.56,10.83-14.53,1.25-13.61-8.9-27.23-25-31.29-11.25-2.85-23.06-5.23-34.57-5-56.77.91-96.27-56.25-99-96.3-1.14-17,.42-34.29.79-51.44.06-2.94.26-5.88.47-10.34-42.22,11.45-80.12,6.7-111.1-24.76-30.77-31.26-36.07-69.15-24.53-112.09-8.9,1.12-15.76,2-22.64,2.83-45.61,5.24-84.48-7.34-115.11-42.8-12.69-14.69-18.28-31.69-19.89-50.58-1-12-1.9-24-4.13-35.73-2.54-13.35-9.6-24-23.24-28.67-9.64-3.31-19.78-.06-23.55,7.18-3.64,7-.75,13.39,9.24,20.4l4.34,3.05c-6.24,8-13.79,11.51-23.4,10.07-10.56-1.6-20.4-11-22.59-21.83-2.53-12.55.08-23.75,9.42-33.11,24.37-24.45,53.23-22.69,74.33,4.81,4.82,6.28,9.1,13,14.76,21.12,4.3-4.86,7.8-8.85,11.33-12.8,45.06-50.37,115.31-26.2,136.68,24.47,9.71,23-1.17,47.67-26,61a75,75,0,0,1-24.15,8.26c-23,3.32-39.5-8.78-44.72-31.45-2.88-12.51,2.69-22.57,14.43-26.08,11.44-3.42,20.48,1.86,24.54,14.62,1.74,5.49,3,11.13,4.48,16.64,12.68-2.44,21.42-16.57,19.85-31.23-3-28.2-35.55-44.71-62-31.37-21.24,10.71-33.77,27.83-34.61,51.74-.92,26,13.27,44.4,34.2,57.47,42.93,26.8,83,18.61,115-22.65,2-2.65,4-5.35,6.87-9.11l10.26,10.93c18.84,20,40.68,33.43,69.42,28.56,29.15-4.93,49.43-22.65,59.66-49.54,12.31-32.31-23.57-77.56-54.9-73.25-14.89,2.06-33,17.4-35.57,32.19-2,11.4,5.68,21.44,19,24.3a16.43,16.43,0,0,0,1.17-3.12c2.17-13,7.73-18.5,18-17.84a22.11,22.11,0,0,1,20.33,20.39c1.34,17.41-13,33.56-31,34.88-27.86,2-53.09-19.11-57.21-48-6.38-44.66,22.88-76.82,67.87-74.26,31.64,1.81,57.88,13.51,74.47,42.13a24,24,0,0,0,2.77,3.68,20.47,20.47,0,0,0,2.56,2c.65-1.18,1.49-2.09,1.7-3.14,4.39-21.35,14.29-32.49,35.4-33.83,25-1.6,50.22-.38,77-.38,0,27.67.8,53.15-.27,78.55-.77,18.32-13.08,30.17-31.33,33.67-1.74.33-3.43.91-6.58,1.77,2.88,2.17,4.59,3.68,6.49,4.87,31.78,19.79,48.85,59.07,41.54,95.66-6,29.74-31.29,49.18-63.14,48.44-31.08-.73-53.75-19.45-57.93-47.85-3.14-21.38,9.91-39.76,29.48-41.52,13-1.18,23.91,7,25.2,19,1.2,11.18-3.77,17.35-15.09,18.77C1679.06-1987.33,1677.28-1987.08,1674.79-1986.74Zm-126.57,28c-8.34,8.29-12.93,17-8.19,27.92,5.21,12,15,17.67,27.69,17.89a82.84,82.84,0,0,0,19.18-1.81c17.28-3.82,17.27-4.11,7.56-18.53-18.08-26.83-23.91-55.51-13.42-86.77.9-2.69,1.09-5.63,1.93-10.18-19.55,7.33-38.27,11.8-56.59,6.14-17.92-5.53-34.79-14.46-53.66-22.56-5.43,12-8.71,26-4.87,40.8,5.92,22.73,30,27.41,42.05,14,.75-.82,2.06-1.13,3.13-1.69,10.31,6.4,9.29,16.36,7.71,26.66C1532-1969.08,1541-1968.15,1548.22-1958.79Zm125.12-190.45c.05,16.12,13.91,30.08,30,30.19,11.07.07,20.21-9.29,20.22-20.69,0-15-15.16-30.18-30.38-30.36C1681.94-2170.23,1673.31-2161.12,1673.34-2149.24Zm-206.48,182.56c-.8,17,6.47,28.71,17.18,38.9,9.69,9.22,20.37,16.13,35.84,14.12-3.57-7.73-7.49-13.82-9.15-20.47-1.73-6.92-1.29-14.38-1.78-21.44-7-.31-14.24.46-20.87-1.26C1481.18-1958.61,1474.91-1962.81,1466.86-1966.68Z" transform="translate(75.54 2215.54)"/><path class="cls-1" d="M1.41-504.45c-4.65-3.07-7.6-5.07-10.6-7-31.62-20.45-47.59-66.17-35.58-101.88C-36.84-636.91-13.2-652.9,14-653.1s49.59,14.55,57.62,38c8.09,23.6-2.64,46.44-23.83,50.74-12.28,2.49-21.69-1.9-26.91-12.55-6-12.25,0-23.1,13.56-24.65,1.79-.2,3.56-.52,5.29-.78-.4-14.38-15.3-24.89-27.6-19.07C-15.53-608.35-29.57-581.35-4-552.78a68.94,68.94,0,0,0,34,21.29c27.79,7.44,46.31-7.4,61.78-27,22-27.93,21.37-60.48-1-88.23-6.89-8.55-15.08-16-23.45-24.83,3.14-2.45,5.94-4.65,8.75-6.83,26.78-20.82,43.07-46.36,36.64-82C106.84-792.73,78.8-822.87,51-826.87c-33.44-4.81-66.7,22.51-66.65,54.74a41.19,41.19,0,0,0,43.45,41.41c12.18-.56,19.62-7.31,25.75-19.1-7-2-13-3.42-18.92-5.38C20.93-759.74,15.79-771.47,22-783.61,26.24-792,34.36-796.4,44.41-794,72.64-787.41,84.7-769.37,76-739.58c-4.15,14.25-12.63,25.92-24.31,35.13-11.21,8.84-24.22,11.53-37.48,7.25-45.32-14.64-72.85-70.59-48.77-114.5,5.18-9.45,13.83-17,21.1-25.31,2.78-3.16,6.15-5.8,10.21-9.57-3.93-3-6.87-5.48-10.06-7.59-13.27-8.77-25.57-18.37-30.82-34.3-7.26-22,8.74-51.4,31.32-57.18,12.28-3.15,23.23-.51,32.17,8.78,10.6,11,9.55,26.37-2.86,36.66-2-2.62-4-5.26-6-7.82C6.26-913.3.08-916.77-5.6-913.33c-4.53,2.74-8.82,8.82-9.72,14-2.39,13.84,9.83,28.36,26.34,31.82,11.39,2.39,23.11,4.38,34.7,4.48,53.77.47,91.17,53.07,95.54,89.33,2.15,17.82.73,36.07.74,54.13,0,4.45-.71,8.89-1.23,14.87,42.32-11.19,80.17-7,111.38,24.52,31,31.31,36.61,68.85,24.79,111.74,8.23-.94,14.79-1.67,21.34-2.43,49.65-5.76,91.16,8.39,121.7,49.57,10.29,13.88,14.1,29.77,15.37,46.65.83,11,1.64,22.15,3.79,33,2.58,12.92,9.33,23.39,22.39,28.44,9.43,3.65,19.83.78,23.69-6.44s1.22-13.87-8.14-20.91c-1.41-1.06-2.76-2.2-4.11-3.29,9.83-14.27,30.37-13.34,40.61,1.43,7.7,11.1,7.58,27-.29,38.19-19.37,27.5-50.81,30.27-74,6-7.15-7.48-12.9-16.31-21.54-27.42-2.95,4.17-5.49,8.22-8.48,11.92-38.43,47.56-104.37,34.52-133.62-14-13.13-21.77-9-44.77,10.12-61.51,14.84-13,31.92-19.63,51.88-16.38,16.32,2.65,32.05,25.57,29,41.8-1.61,8.7-8.56,14.85-18,16S331.8-450.7,328.22-460c-2.39-6.22-3.75-12.84-5.56-19.23-15.28,2.91-23.82,21.59-18.05,38.41,8.83,25.77,38.5,36.44,63,22.67,35.27-19.8,42.87-61.45,16.5-91.89a91.23,91.23,0,0,0-50.87-29.85c-29.37-6.32-53.17,4.57-73.29,25.22-5.76,5.9-10.66,12.64-18,21.5-2.47-3.65-4.09-7.62-7-10-10.86-8.91-21.13-19.37-33.49-25.47-29.82-14.71-63.34-3.89-87.31,25.92-19.2,23.88-14.61,56.8,11.26,79.65,24.34,21.5,50.9,15.3,67.07-13.92,7.5-13.57-.38-27.51-16.83-31a12,12,0,0,0-1.3,3c-1.82,13.25-7,19-17.05,18.58-10.95-.43-20.25-9.61-21.06-20.78-1.26-17.35,12.51-33.18,30.07-34.56,28.15-2.21,54,18.44,58.48,46.71,7.88,49.76-29.07,83.33-81.4,74.37-26.8-4.59-47.6-17.52-61.42-41.19a33.51,33.51,0,0,0-3.23-4.46c-.3-.36-1.11-.29-2.33-.56a59.15,59.15,0,0,0-2,5.66c-5,20.09-18.9,31.7-39.57,31.68-21.82,0-43.65-.78-65.45-1.7-2.1-.09-5.72-3.58-5.8-5.6-.75-20.86-1-41.74-1.23-62.62s8.73-35.68,24.81-41.24C-8.89-502.11-4.73-502.87,1.41-504.45Zm201.3-90.14c-10.39-7.36-9.63-17.57-8.33-27.65-17.14,1.23-20.23.28-26.83-8.07a30.45,30.45,0,0,1,2.51-3.57c16.41-17.45,1.27-39.52-16.3-41.37a96,96,0,0,0-29.21,1.83c-13.55,2.84-13.21,3.71-5.47,15,18.68,27.31,26.68,56.54,15,89-1,2.66-1.21,5.58-2.27,10.63,41.17-15.94,76.58-7,110.88,20.83,2.5-13.35,5.25-23.35,6.07-33.51,1.08-13.27-4.09-24.24-16.46-30.55C220.91-607.73,211.48-603.33,202.71-594.59ZM42.18-439.86c0-15.39-14.6-29.73-30.41-29.94-10.63-.14-20.53,9.2-20.56,19.41,0,14.88,16.14,31.28,30.89,31.29C33.33-419.08,42.21-428.26,42.18-439.86ZM248.24-621.17c1.08-18.23-6.24-30-17-40-9.62-8.94-20.32-16-36.85-14.2,8.39,14.07,16,26.66,8.62,44C220.68-636.09,233.88-631.2,248.24-621.17Z" transform="translate(75.54 2215.54)"/><path class="cls-1" d="M1296.1-424.48c-5.83,8-10.41,14.9-15.62,21.29-11,13.42-23.93,22.83-42.61,21.42-23.7-1.78-44.56-25.69-41-47.94,1.86-11.6,8.71-19.7,19.92-23.25,10.06-3.18,18.68-.18,26.1,8.65-2.32,1.76-4.28,3.49-6.47,4.86-6.78,4.25-10.08,10-7.35,17.94,2.41,7,11.83,11.61,19.89,9.77,14.9-3.4,23.21-13.95,26.72-27.76,2.7-10.65,3.53-21.85,4.4-32.87,3.46-43.61,31-78.29,72.87-92.53,25.89-8.81,52-8,78.44-4.21,1.46.21,2.95.19,6.37.39-10.42-41.42-6.74-79.73,24.41-110.82s68.76-37.08,111.68-25.2c-.81-9.48-1.37-17.28-2.15-25.06-4.56-45,8.27-83.23,43.63-112.87,13.69-11.48,29.28-17.66,47-19.4,14.06-1.38,28.19-2.75,42-5.43,11.78-2.28,20.47-9.68,25-21.15,3.95-9.91.91-20.71-6.68-24.41s-14.42-.55-21,9.55a34.42,34.42,0,0,1-2.24,2.78c-11.67-6.55-14.3-22.08-5.84-33.26a32.8,32.8,0,0,1,40.68-9.49c29,14.45,35.75,50.64,13.1,73.75-8.08,8.25-17.84,14.85-29.68,24.54,4,2.81,8,5.38,11.71,8.41,50.35,41.34,30.13,113.9-22.36,137.56-14.85,6.7-29.85,5.07-42.92-4.59-19.09-14.11-28.87-33.27-27.33-57.39,1.14-17.81,22.53-35.2,40.29-33.08,10.22,1.22,17,7.8,18.29,17.83,1.22,9.23-3.7,17.22-13.36,20.7-6,2.17-12.29,3.61-18.39,5.36,2,10.39,10.64,17.78,22.07,19.28,16,2.09,28.57-4.06,37.46-16.93,9.94-14.39,10.67-30,2.53-45.5-20.46-38.84-68.74-45.86-98.34-13.57-23,25.15-33.62,54.44-20.9,88.35,6.46,17.22,19,30,33.45,40.91,2.63,2,5.29,3.93,8,6-8.74,9.3-17.56,17.39-24.87,26.68-37.63,47.73-.9,100.48,36,113.68,20.71,7.42,51-5.85,65.54-27.67,16.12-24.27,4-55.76-24.28-63.24-11.61-3.07-22.73,5.25-25.42,19.47a24.69,24.69,0,0,0,4.08,1.25c12.39,1.63,16.75,5.48,17,15.2.33,10.52-7.21,20.18-17.25,22.06-19.2,3.62-37.55-12-38-33.06-.4-19.78,8.32-35.49,24.94-45.62,22.58-13.77,46.36-14.16,69.22-.67,23.39,13.81,30.39,36.11,28.26,61.82-2.62,31.62-15.47,57.36-44.17,73.45-1.26.7-2.22,1.95-4.14,3.69,2.61,1,4.36,2,6.23,2.4,19.33,4.23,30.22,16,31.24,35.63.58,11-.94,22.1-1.12,33.17-.23,13.77,0,27.55,0,42.18-2.21.11-4.87.29-7.52.36-18.14.48-36.3.47-54.4,1.5-28,1.6-42-8.36-51-38.74-2.69,3.33-5.19,5.73-6.87,8.61-22.47,38.58-69.31,45.54-100.11,37.45-25.58-6.72-41.77-31.23-41.75-60.82,0-27.45,16-49.71,41-57.31,15.86-4.8,31.83-.27,41.82,11.86,11.09,13.46,8.13,32.3-6.21,39.52-12.46,6.27-22.79,1.11-25.31-12.69-.32-1.77-.46-3.58-.68-5.33-14.18.68-23.78,13.31-18.87,26,10.47,27.18,40.36,42.64,65.5,19.48a100.07,100.07,0,0,0,21.73-29.18c8.27-17,6.07-34-5.71-49.51-34.71-45.7-88-46.55-124.54-1.85-1.9,2.32-3.78,4.66-6.33,7.8L1460-509c-37.11-45.31-101.61-42.58-134.92,5.71-24.49,35.52.14,87.47,43.34,91.4,25.21,2.29,47.92-22.4,42.94-46.93-2.08-10.21-8-17.45-18.67-21.79-2,7.1-3.39,13.33-5.51,19.3C1383.34-450.44,1375.55-446,1365-448c-11-2.14-16.94-9.56-16.62-20.94.54-19.46,16.07-35.82,35.35-37.24,26.46-2,56.14,17.31,61.55,41.87,2,9,1.52,20.2-2.06,28.59-16.49,38.58-63.33,64.23-106.34,45.58-11.67-5.06-21.11-15.39-31.31-23.63C1302.28-416.43,1299.9-420.11,1296.1-424.48Zm227-197.47c-1.72,7.94-2.57,14.83-4.8,21.24-1.6,4.61-5.4,6.75-10,2.4-15-14-40.07-2.36-41.35,19.92-.51,9,.89,18.37,2.86,27.26,2.69,12.16,3.85,12.29,14.22,5,28.8-20.3,59.68-26.76,93.51-14.41,1.52.56,3.34.27,6.2.45-1-3.57-1.62-6.16-2.48-8.67-7.75-22.85-7.33-45.5,2.75-67.47,4.21-9.16,9.87-17.69,15.19-26.3,3-4.85,2.79-8.59-3.24-9.38-11.79-1.53-23.93-4.39-35.45-2.94-21.37,2.69-28.63,25.54-14.47,41.77a25.89,25.89,0,0,1,2,3.05C1541.39-620.26,1531.85-620.83,1523.06-621.95Zm150.25,181.32c-.3,11.63,8.41,21.39,19.24,21.56,15.08.22,30.35-14.66,30.76-30,.3-11.39-7.72-20.12-18.94-20.6C1688.66-470.34,1673.73-456.39,1673.31-440.63ZM1520.62-675.45c-18.61-1.86-30.21,6.77-40.42,17.75-8.84,9.51-15,20.35-13.28,36.08,14.29-8.46,27.26-15.59,44.55-9.94C1505.83-648.66,1512.1-661.32,1520.62-675.45Z" transform="translate(75.54 2215.54)"/><path class="cls-1" d="M0-2085.07a18.16,18.16,0,0,0-3.21-1.4c-23.56-5.17-34.36-18-34.32-41.85q0-31.77,1.22-63.53c.07-2.06,3.67-5.63,5.76-5.72,21.8-.93,43.63-1.74,65.44-1.69,21.3.05,34.33,10.87,39.84,31.49.45,1.68,1.14,3.29,2.38,6.81,3-4.09,5.12-6.85,7.09-9.7,21.39-30.83,61.12-45.65,97.62-36.38,25.48,6.48,43.75,31,44.23,59.29.47,27.3-17.66,52.4-42.75,59.21-20.5,5.56-40-3.84-45.77-22-3.45-11-.83-20,7.11-26.67,10.57-8.81,28.85-7.16,29.46,11.41a23.14,23.14,0,0,0,.93,4.25c15.56-.56,25.22-15.86,18-29.48-15.1-28.69-43.68-38.48-71.12-11.82a68.74,68.74,0,0,0-18.8,33.29c-7.22,28.61,18,57.11,40.36,68,28.46,13.85,58.28,8.38,83.16-15.16,5.74-5.43,11-11.39,16.92-17.62,4.86,6.07,9.09,11.66,13.64,17,40.12,46.89,117.18,35.29,139.17-21.33,7.52-19.36,4.53-38.32-8.77-54.81-12.91-16-28.87-25.85-50.47-22.52-27.15,4.19-42.59,32.88-29.41,55.31,3,5.07,8.4,8.7,14.4,14.68,2-8.17,3.09-13.19,4.51-18.11,3.95-13.68,13.54-19.91,25.22-16.58,12.53,3.57,17.63,14,13.55,27.78q-10.5,35.26-46.82,29.65c-23.76-3.68-46.07-23.35-49.33-45.13a47.74,47.74,0,0,1,2.33-23.39c16.16-41.44,73.56-69.71,117.37-41.23,7.38,4.79,13.58,11.45,20.08,17.5,3.29,3.08,6.05,6.73,10,11.15,3-4.21,5.37-7.23,7.44-10.44,8-12.41,17.72-23,31.39-29.08,16.58-7.38,31.23-2.29,44.77,8,12.52,9.53,18.74,21.73,15.89,37.77-3.46,19.44-26.27,29.9-41,18.7-1.83-1.38-3.17-3.41-5.11-5.56,2.6-1.95,4.52-3.4,6.46-4.82,6.58-4.84,10.6-11,6.58-19-3.78-7.53-11.18-9.72-18.94-8.15-15.27,3.06-23.94,13.44-27.28,28-2.05,8.95-4,18.3-3.6,27.38,2.35,56.85-50.73,97.06-91.85,102.08-18.39,2.24-37.32.12-56-.08-2.69,0-5.37-.43-10.1-.83,10.14,41.73,6,79.71-24.9,111.05-31.13,31.61-68.81,36.43-111.53,25.16.53,7.25.71,13.26,1.44,19.2,5.35,43.36-4,81.64-36.52,113.06-17.42,16.82-37.5,24.82-61.33,25.84a180,180,0,0,0-34.61,4.72c-15.74,3.84-25,14.67-25.92,27.78-.59,8,1.51,15.16,9.55,18.18,7.7,2.88,13.66-.86,18.14-7.32a68.19,68.19,0,0,1,4.6-5.4c10.42,7.41,12.87,20.28,6.3,31.06-10,16.34-30.67,20.17-46.67,8.65-30.41-21.9-29.64-56.7,1.84-80,5.87-4.35,12-8.33,19.55-13.52-4.55-4-8-7.28-11.6-10.28-23.37-19.34-33.49-44.27-27.93-73.89,5.73-30.47,24-52.43,52.85-64.11,19.16-7.75,36.62-1.73,52.19,16.8,11.94,14.23,18.4,30.61,14.32,49.6-3.35,15.56-21.22,29.48-37.2,29.5-9.75,0-17.51-6.26-19.92-16.09-2.33-9.54,1.47-17.4,11-21.83a66.11,66.11,0,0,1,10.52-3.36c3.45-.94,7-1.63,10.39-2.41-3.1-17.82-25.15-23.58-39.63-18.51-23.8,8.33-35.17,36.07-24.2,59.18,19.28,40.58,70.76,47.91,100.45,14.24,11.59-13.14,20.35-28,23.86-45.25,6.22-30.54-5.43-54.85-27.72-75-5.43-4.91-11.28-9.35-17.77-14.69,3.38-3.2,6.18-5.89,9-8.54,20.65-19.31,35.72-41.14,30.35-71.35-4.78-26.89-21.06-45.38-44.82-57.49-13-6.62-26.5-4.35-39.49.51-14,5.23-25,14.62-33.06,27.06-15,23-.25,56.34,27,61.61,10.74,2.07,21.2-6.31,23.93-19.69a24.6,24.6,0,0,0-4-1.3c-11.68-1.88-17.06-6.63-17.37-15.44-.33-9.26,7.48-19.44,16.79-21.86,17-4.43,36.13,9.81,38.19,28.4,3,27-15.58,52.13-43.11,58.32-44.65,10-79.65-18.45-78.74-64.12.67-33.46,13.67-60.16,42.84-78a45.62,45.62,0,0,0,4.52-3.15C-.41-2083.39-.37-2084.13,0-2085.07ZM192.71-1967.4c1.53-7.69,2.27-14.6,4.4-21,1.58-4.78,5.36-6.69,9.82-2.07,11.91,12.35,36,6.17,40.16-15.4,1.82-9.33,1.1-19.65-.73-29.08-3-15.36-4.44-15.39-17.26-6.53-26.89,18.59-55.77,25-87.47,14.16-2.66-.91-5.54-1.15-9.84-2,1.36,5,2.73,8.17,3,11.41,1.25,14.24,3.9,28.64,2.81,42.73-1.35,17.41-10.18,32.65-20.38,46.8-5.39,7.46-4.91,10,4.14,11.87,9.81,2,20,3.4,30,3.12,10.76-.3,19.32-6.23,23.78-16.4,4.32-9.83,1.58-18.61-5.44-26.33a14.92,14.92,0,0,1-1.64-2.91C175.14-1967.38,176.64-1967.85,192.71-1967.4ZM42.23-2149.26c0-11.62-8.93-20.91-20.08-20.82-14.37.11-30.57,16.16-30.76,30.48-.15,10.89,9.53,20.49,20.64,20.49C27.74-2119.1,42.18-2133.52,42.23-2149.26ZM194-1913.67c19.59,2.38,31.37-6.83,41.92-18.44,8.61-9.48,14.1-20.13,11.55-35.23-13.53,9.1-26.72,14.1-43.72,9.85C210.16-1940.35,202.44-1927.85,194-1913.67Z" transform="translate(75.54 2215.54)"/><rect class="cls-2" x="111.16" y="-2028.84" width="1485.68" height="1485.68" rx="346.42" transform="translate(1235.01 2442.75) rotate(-45)"/></svg>